<svg width="65" height="84" viewBox="0 0 65 84" fill="none" xmlns="http://www.w3.org/2000/svg">
<ellipse cx="32.5" cy="32.0076" rx="32.5" ry="32.0076" fill="#FF7800"/>
<ellipse cx="32.5" cy="79.2806" rx="4.5" ry="4.43182" fill="#FF7800"/>
<path d="M32.5 71.894L27.75 70.6406L24.2728 67.216L23 62.538L24.2728 57.8599L27.75 54.4354L32.5 53.1819L37.25 54.4354L40.7272 57.86L42 62.538L40.7272 67.216L37.25 70.6406L32.5 71.894Z" fill="#FF7800"/>
<path d="M33 15.7576C27.1333 15.7576 21 20.467 21 28.2237C21 35.5649 31.6667 46.7844 32.0667 47.1999C32.3333 47.477 32.6 47.6155 33 47.6155C33.4 47.6155 33.6667 47.477 33.9333 47.1999C34.3333 46.7844 45 35.5649 45 28.2237C45 20.467 38.8667 15.7576 33 15.7576ZM33 32.3791C30.7333 32.3791 29 30.5784 29 28.2237C29 25.869 30.7333 24.0683 33 24.0683C35.2667 24.0683 37 25.869 37 28.2237C37 30.5784 35.2667 32.3791 33 32.3791Z" fill="white"/>
</svg>
