<svg width="34" height="34" viewBox="0 0 34 34" fill="none" xmlns="http://www.w3.org/2000/svg">
<path d="M16.9996 0.33374C21.528 0.33374 22.093 0.350407 23.8696 0.43374C25.6446 0.517073 26.8529 0.795405 27.9163 1.20874C29.0163 1.63207 29.9429 2.2054 30.8696 3.13039C31.7171 3.96355 32.3729 4.97137 32.7913 6.08372C33.2029 7.14538 33.4829 8.35537 33.5663 10.1304C33.6446 11.907 33.6663 12.472 33.6663 17.0003C33.6663 21.5287 33.6496 22.0936 33.5663 23.8703C33.4829 25.6453 33.2029 26.8536 32.7913 27.917C32.3741 29.0299 31.7181 30.038 30.8696 30.8703C30.0362 31.7175 29.0285 32.3732 27.9163 32.7919C26.8546 33.2036 25.6446 33.4836 23.8696 33.5669C22.093 33.6453 21.528 33.6669 16.9996 33.6669C12.4713 33.6669 11.9063 33.6503 10.1297 33.5669C8.35465 33.4836 7.14632 33.2036 6.08299 32.7919C4.97021 32.3744 3.96221 31.7185 3.12967 30.8703C2.28201 30.0373 1.62622 29.0294 1.20801 27.917C0.794674 26.8553 0.516341 25.6453 0.433007 23.8703C0.354674 22.0936 0.333008 21.5287 0.333008 17.0003C0.333008 12.472 0.349674 11.907 0.433007 10.1304C0.516341 8.35371 0.794674 7.14704 1.20801 6.08372C1.62506 4.97069 2.28101 3.96259 3.12967 3.13039C3.96245 2.28245 4.97038 1.62662 6.08299 1.20874C7.14632 0.795405 8.35299 0.517073 10.1297 0.43374C11.9063 0.355407 12.4713 0.33374 16.9996 0.33374ZM16.9996 8.66704C14.7895 8.66704 12.6699 9.54501 11.1071 11.1078C9.54429 12.6706 8.66632 14.7902 8.66632 17.0003C8.66632 19.2105 9.54429 21.3301 11.1071 22.8929C12.6699 24.4557 14.7895 25.3336 16.9996 25.3336C19.2098 25.3336 21.3294 24.4557 22.8922 22.8929C24.455 21.3301 25.3329 19.2105 25.3329 17.0003C25.3329 14.7902 24.455 12.6706 22.8922 11.1078C21.3294 9.54501 19.2098 8.66704 16.9996 8.66704ZM27.8329 8.25037C27.8329 7.69784 27.6134 7.16794 27.2227 6.77724C26.832 6.38654 26.3021 6.16705 25.7496 6.16705C25.1971 6.16705 24.6672 6.38654 24.2765 6.77724C23.8858 7.16794 23.6663 7.69784 23.6663 8.25037C23.6663 8.80291 23.8858 9.33281 24.2765 9.72351C24.6672 10.1142 25.1971 10.3337 25.7496 10.3337C26.3021 10.3337 26.832 10.1142 27.2227 9.72351C27.6134 9.33281 27.8329 8.80291 27.8329 8.25037ZM16.9996 12.0004C18.3257 12.0004 19.5975 12.5271 20.5352 13.4648C21.4728 14.4025 21.9996 15.6743 21.9996 17.0003C21.9996 18.3264 21.4728 19.5982 20.5352 20.5359C19.5975 21.4735 18.3257 22.0003 16.9996 22.0003C15.6736 22.0003 14.4018 21.4735 13.4641 20.5359C12.5264 19.5982 11.9996 18.3264 11.9996 17.0003C11.9996 15.6743 12.5264 14.4025 13.4641 13.4648C14.4018 12.5271 15.6736 12.0004 16.9996 12.0004Z" fill="white"/>
</svg>
