<svg width="46" height="46" viewBox="0 0 46 46" fill="none" xmlns="http://www.w3.org/2000/svg">
<g clip-path="url(#clip0_1955_479)">
<path d="M36.416 28.75C39.5917 28.75 42.166 26.1756 42.166 23C42.166 19.8244 39.5917 17.25 36.416 17.25C33.2404 17.25 30.666 19.8244 30.666 23C30.666 26.1756 33.2404 28.75 36.416 28.75Z" fill="white"/>
<path d="M28.7506 21.0833C29.8092 21.0833 30.6673 20.2252 30.6673 19.1666C30.6673 18.1081 29.8092 17.25 28.7506 17.25C27.6921 17.25 26.834 18.1081 26.834 19.1666C26.834 20.2252 27.6921 21.0833 28.7506 21.0833Z" fill="white"/>
<path d="M32.5836 17.25C33.6422 17.25 34.5003 16.3919 34.5003 15.3334C34.5003 14.2749 33.6422 13.4167 32.5836 13.4167C31.5251 13.4167 30.667 14.2749 30.667 15.3334C30.667 16.3919 31.5251 17.25 32.5836 17.25Z" fill="white"/>
<path d="M40.2506 17.25C41.3092 17.25 42.1673 16.3919 42.1673 15.3334C42.1673 14.2749 41.3092 13.4167 40.2506 13.4167C39.1921 13.4167 38.334 14.2749 38.334 15.3334C38.334 16.3919 39.1921 17.25 40.2506 17.25Z" fill="white"/>
<path d="M44.0836 21.0833C45.1421 21.0833 46.0003 20.2252 46.0003 19.1666C46.0003 18.1081 45.1421 17.25 44.0836 17.25C43.0251 17.25 42.167 18.1081 42.167 19.1666C42.167 20.2252 43.0251 21.0833 44.0836 21.0833Z" fill="white"/>
<path d="M23.9581 42.1666C18.1386 42.1603 13.4227 37.4443 13.4164 31.625V24.9166H9.58301V31.625C9.58301 39.5641 16.0189 46 23.958 46C31.8971 46 38.333 39.5641 38.333 31.625H34.4997C34.4934 37.4443 29.7775 42.1603 23.9581 42.1666Z" fill="white"/>
<path d="M23 11.5V1.91664C23 0.858098 22.1419 0 21.0834 0H15.3334V3.83336H19.1667V11.5C19.1667 15.7342 15.7342 19.1666 11.5001 19.1666C7.26593 19.1666 3.83336 15.7342 3.83336 11.5V3.83336H7.66673V0H1.91673C0.858098 0 0 0.858098 0 1.91664V11.5C0 17.8512 5.14877 23 11.5 23C17.8512 23 23 17.8512 23 11.5Z" fill="white"/>
</g>
<defs>
<clipPath id="clip0_1955_479">
<rect width="46" height="46" fill="white"/>
</clipPath>
</defs>
</svg>
