<svg aria-hidden="true" style="position: absolute; width: 0; height: 0; overflow: hidden;" version="1.1" xmlns="http://www.w3.org/2000/svg" xmlns:xlink="http://www.w3.org/1999/xlink">
<defs>
<symbol id="icon-adressmark" viewBox="0 0 32 32">
<path fill="#fff" style="fill: var(--color1, #fff)" d="M15.82 1.382c-5.567 0.087-10.021 4.922-9.93 10.777 0.114 7.267 9.316 17.794 9.707 18.238 0.368 0.418 0.999 0.407 1.353-0.021 0.378-0.457 9.246-11.266 9.132-18.533-0.092-5.856-4.695-10.549-10.262-10.462zM16.070 17.344c-2.801 0.044-5.117-2.317-5.163-5.264s2.195-5.378 4.996-5.422c2.801-0.044 5.117 2.317 5.163 5.264s-2.195 5.378-4.996 5.422z"></path>
</symbol>
<symbol id="icon-clock" viewBox="0 0 32 32">
<path fill="#fff" style="fill: var(--color1, #fff)" d="M15.777 0.301c-8.365 0.131-15.061 7.197-14.926 15.752s7.051 15.408 15.416 15.277c8.365-0.131 15.061-7.197 14.926-15.752s-7.051-15.408-15.416-15.277zM16.216 28.029c-6.585 0.103-12.030-5.292-12.136-12.027s5.165-12.297 11.75-12.4c6.585-0.103 12.030 5.292 12.136 12.027s-5.165 12.297-11.75 12.4z"></path>
<path fill="#fff" style="fill: var(--color1, #fff)" d="M24.032 15.218l-6.805 0.106-0.132-8.397c-0.011-0.707-0.578-1.271-1.267-1.26s-1.238 0.592-1.227 1.299l0.152 9.676c0.011 0.707 0.578 1.271 1.267 1.26l8.052-0.126c0.688-0.011 1.238-0.592 1.227-1.299s-0.578-1.271-1.267-1.26z"></path>
</symbol>
<symbol id="icon-coordinates" viewBox="0 0 32 32">
<path fill="#ff7800" style="fill: var(--color2, #ff7800)" d="M28.381 12.193c0 6.734-5.543 12.193-12.381 12.193s-12.381-5.459-12.381-12.193c0-6.734 5.543-12.193 12.381-12.193s12.381 5.459 12.381 12.193z"></path>
<path fill="#ff7800" style="fill: var(--color2, #ff7800)" d="M17.714 30.202c0 0.932-0.767 1.688-1.714 1.688s-1.714-0.756-1.714-1.688c0-0.932 0.768-1.688 1.714-1.688s1.714 0.756 1.714 1.688z"></path>
<path fill="#ff7800" style="fill: var(--color2, #ff7800)" d="M16 27.388l-1.81-0.477-1.325-1.305-0.485-1.782 0.485-1.782 1.325-1.305 1.81-0.478 1.81 0.478 1.325 1.305 0.485 1.782-0.485 1.782-1.325 1.305-1.81 0.477z"></path>
<path fill="#fff" style="fill: var(--color1, #fff)" d="M16.19 6.003c-2.235 0-4.571 1.794-4.571 4.749 0 2.797 4.063 7.071 4.216 7.229 0.102 0.106 0.203 0.158 0.356 0.158s0.254-0.053 0.356-0.158c0.152-0.158 4.216-4.432 4.216-7.229 0-2.955-2.337-4.749-4.571-4.749zM16.19 12.335c-0.864 0-1.524-0.686-1.524-1.583s0.66-1.583 1.524-1.583c0.863 0 1.524 0.686 1.524 1.583s-0.66 1.583-1.524 1.583z"></path>
</symbol>
<symbol id="icon-facebook-f-33" viewBox="0 0 32 32">
<path d="M20.48 7.040h3.2c0.353 0 0.64-0.287 0.64-0.64v-4.312c0-0.335-0.258-0.614-0.592-0.638-1.018-0.072-3.007-0.17-4.438-0.17-3.93 0-6.49 2.355-6.49 6.636v4.244h-4.48c-0.353 0-0.64 0.287-0.64 0.64v4.48c0 0.353 0.287 0.64 0.64 0.64h4.48v12.16c0 0.353 0.287 0.64 0.64 0.64h4.48c0.353 0 0.64-0.287 0.64-0.64v-12.16h4.622c0.326 0 0.6-0.245 0.636-0.57l0.498-4.48c0.042-0.379-0.255-0.71-0.636-0.71h-5.12v-3.2c0-1.060 0.86-1.92 1.92-1.92z"></path>
</symbol>
<symbol id="icon-facebook-f-50" viewBox="0 0 32 32">
<path d="M20.48 7.040h3.2c0.353 0 0.64-0.287 0.64-0.64v-4.312c0-0.335-0.258-0.614-0.592-0.638-1.018-0.072-3.007-0.17-4.438-0.17-3.93 0-6.49 2.355-6.49 6.636v4.244h-4.48c-0.353 0-0.64 0.287-0.64 0.64v4.48c0 0.353 0.287 0.64 0.64 0.64h4.48v12.16c0 0.353 0.287 0.64 0.64 0.64h4.48c0.353 0 0.64-0.287 0.64-0.64v-12.16h4.622c0.326 0 0.6-0.245 0.636-0.57l0.498-4.48c0.042-0.379-0.255-0.71-0.636-0.71h-5.12v-3.2c0-1.060 0.86-1.92 1.92-1.92z"></path>
</symbol>
<symbol id="icon-home" viewBox="0 0 32 32">
<path fill="#ffa14d" style="fill: var(--color3, #ffa14d)" opacity="0.64" d="M30.046 13.619l-13.721-10.047c-0.129-0.094-0.284-0.145-0.444-0.145s-0.315 0.051-0.444 0.145l-13.723 10.047c-0.082 0.057-0.152 0.13-0.206 0.215s-0.090 0.179-0.106 0.278-0.013 0.2 0.010 0.298c0.023 0.098 0.066 0.19 0.125 0.271s0.134 0.149 0.22 0.201 0.181 0.085 0.281 0.1c0.099 0.014 0.2 0.008 0.297-0.017s0.188-0.070 0.267-0.131l13.277-9.721 13.277 9.721c0.161 0.112 0.36 0.157 0.553 0.124s0.367-0.139 0.483-0.298c0.116-0.158 0.165-0.356 0.138-0.55s-0.13-0.37-0.286-0.49h0.001z"></path>
<path fill="#ffa14d" style="fill: var(--color3, #ffa14d)" opacity="0.64" d="M26.411 15.001c-0.199 0-0.391 0.079-0.532 0.22s-0.22 0.332-0.22 0.532v11.972h-6.017v-6.533c-0.019-0.985-0.423-1.924-1.126-2.614s-1.649-1.077-2.635-1.077-1.931 0.387-2.634 1.077c-0.703 0.69-1.108 1.629-1.126 2.614v6.533h-6.017v-11.972c0-0.199-0.079-0.391-0.22-0.532s-0.332-0.22-0.532-0.22-0.391 0.079-0.532 0.22c-0.141 0.141-0.22 0.332-0.22 0.532v12.724c0 0.199 0.079 0.391 0.22 0.532s0.332 0.22 0.532 0.22h7.521c0.189-0 0.371-0.072 0.51-0.2s0.224-0.305 0.239-0.493c0.001-0.020 0.001-0.039 0-0.059v-7.287c0-0.599 0.238-1.173 0.661-1.596s0.997-0.661 1.596-0.661c0.599 0 1.173 0.238 1.596 0.661s0.661 0.997 0.661 1.596v7.287c-0.001 0.019-0.001 0.038 0 0.057 0.015 0.189 0.1 0.365 0.239 0.494s0.321 0.2 0.511 0.201h7.521c0.199 0 0.391-0.079 0.532-0.22s0.22-0.332 0.22-0.532v-12.724c0-0.199-0.078-0.389-0.218-0.53s-0.33-0.221-0.528-0.222z"></path>
</symbol>
<symbol id="icon-insta" viewBox="0 0 32 32">
<path fill="#fff" style="fill: var(--color1, #fff)" d="M16 0.314c4.262 0 4.794 0.016 6.466 0.094 1.671 0.078 2.808 0.34 3.809 0.729 1.035 0.398 1.907 0.938 2.78 1.809 0.798 0.784 1.415 1.733 1.809 2.78 0.387 0.999 0.651 2.138 0.729 3.809 0.074 1.672 0.094 2.204 0.094 6.466s-0.016 4.794-0.094 6.466c-0.078 1.671-0.342 2.808-0.729 3.809-0.393 1.047-1.010 1.996-1.809 2.78-0.784 0.797-1.733 1.415-2.78 1.809-0.999 0.387-2.138 0.651-3.809 0.729-1.672 0.074-2.204 0.094-6.466 0.094s-4.794-0.016-6.466-0.094c-1.671-0.078-2.808-0.342-3.809-0.729-1.047-0.393-1.996-1.010-2.78-1.809-0.798-0.784-1.415-1.733-1.809-2.78-0.389-0.999-0.651-2.138-0.729-3.809-0.074-1.672-0.094-2.204-0.094-6.466s0.016-4.794 0.094-6.466c0.078-1.672 0.34-2.808 0.729-3.809 0.393-1.048 1.010-1.996 1.809-2.78 0.784-0.798 1.732-1.415 2.78-1.809 1.001-0.389 2.136-0.651 3.809-0.729 1.672-0.074 2.204-0.094 6.466-0.094zM16 8.157c-2.080 0-4.075 0.826-5.546 2.297s-2.297 3.466-2.297 5.546c0 2.080 0.826 4.075 2.297 5.546s3.466 2.297 5.546 2.297c2.080 0 4.075-0.826 5.546-2.297s2.297-3.466 2.297-5.546c0-2.080-0.826-4.075-2.297-5.546s-3.466-2.297-5.546-2.297zM26.196 7.765c0-0.52-0.207-1.019-0.574-1.386s-0.866-0.574-1.386-0.574c-0.52 0-1.019 0.207-1.386 0.574s-0.574 0.866-0.574 1.386c0 0.52 0.207 1.019 0.574 1.387s0.866 0.574 1.386 0.574c0.52 0 1.019-0.207 1.386-0.574s0.574-0.866 0.574-1.386zM16 11.294c1.248 0 2.445 0.496 3.328 1.378s1.378 2.080 1.378 3.328c0 1.248-0.496 2.445-1.378 3.328s-2.080 1.378-3.328 1.378c-1.248 0-2.445-0.496-3.328-1.378s-1.378-2.080-1.378-3.328c0-1.248 0.496-2.445 1.378-3.328s2.080-1.378 3.328-1.378z"></path>
</symbol>
<symbol id="icon-metro" viewBox="0 0 32 32">
<path fill="#f00" style="fill: var(--color4, #f00)" opacity="0.6" d="M21.187 3.2l-5.187 16.354-5.187-16.354c-6.171 2.121-10.813 7.874-10.813 14.47 0 3.973 1.621 7.636 4.243 10.337h7.521l0.788-3.419c-8.985-3.52-7.286-14.429-4.029-16.209 0.387 0.116 6.052 19.548 6.052 19.548 0.077 0 0.329 0 0.636 0 0.065 0 0.309 0 0.614 0 0.11 0 0.229 0 0.35 0 0.207 0 0.421 0 0.613 0 0.308 0 0.559 0 0.636 0 0 0 5.666-19.432 6.052-19.548 3.257 1.781 4.956 12.689-4.029 16.209l0.789 3.419h7.521c2.622-2.7 4.243-6.364 4.243-10.337 0-6.596-4.642-12.349-10.813-14.47z"></path>
</symbol>
<symbol id="icon-next" viewBox="0 0 32 32">
<path fill="#3897f0" style="fill: var(--color5, #3897f0)" d="M16.878 24.277l14.76-14.801c0.483-0.485 0.483-1.27-0.002-1.754s-1.271-0.482-1.754 0.003l-13.882 13.92-13.881-13.92c-0.484-0.485-1.269-0.486-1.754-0.003-0.243 0.243-0.365 0.561-0.365 0.879s0.121 0.634 0.362 0.876l14.76 14.801c0.232 0.233 0.549 0.365 0.878 0.365s0.645-0.132 0.878-0.365z"></path>
</symbol>
<symbol id="icon-phone" viewBox="0 0 32 32">
<path fill="#fff" style="fill: var(--color1, #fff)" d="M29.363 23.848l-4.402-4.121c-0.436-0.392-1.002-0.587-1.571-0.542s-1.097 0.326-1.467 0.781l-1.95 2.319-0.427-0.217c-1.903-0.895-3.671-2.085-5.243-3.529-1.549-1.48-2.882-3.193-3.953-5.082-0.086-0.143-0.168-0.28-0.25-0.411l1.95-2.321c0.384-0.443 0.585-1.029 0.559-1.631s-0.278-1.17-0.699-1.581l-4.402-4.121c-0.436-0.392-1.001-0.587-1.57-0.542s-1.097 0.325-1.466 0.781l-1.097 1.302 0.034 0.032c-0.366 0.569-0.651 1.191-0.847 1.848-0.179 0.596-0.285 1.213-0.316 1.838-0.255 4.808 2.080 9.050 8.055 14.64 8.261 7.731 14.479 6.752 14.746 6.699 0.586-0.109 1.156-0.296 1.696-0.558 0.591-0.284 1.14-0.658 1.627-1.109l0.027 0.023 1.106-1.288c0.38-0.444 0.579-1.029 0.553-1.63s-0.275-1.167-0.693-1.58z"></path>
</symbol>
<symbol id="icon-prev" viewBox="0 0 32 32">
<path fill="#ff7800" style="fill: var(--color2, #ff7800)" d="M16.878 7.723l14.76 14.801c0.483 0.485 0.483 1.27-0.002 1.754s-1.271 0.482-1.754-0.003l-13.882-13.92-13.881 13.92c-0.484 0.485-1.269 0.486-1.754 0.003-0.243-0.243-0.365-0.561-0.365-0.879s0.121-0.634 0.362-0.876l14.76-14.801c0.232-0.234 0.549-0.365 0.878-0.365s0.645 0.131 0.878 0.365z"></path>
</symbol>
<symbol id="icon-sign-icon" viewBox="0 0 32 32">
<path fill="#fff" style="fill: var(--color1, #fff)" d="M21.961 13.251c-0.040-0.475-0.61-0.836-1.272-0.806l-12.349 0.561c-0.662 0.030-1.166 0.44-1.126 0.915s0.61 0.836 1.272 0.806l12.349-0.561c0.662-0.030 1.166-0.44 1.126-0.915z"></path>
<path fill="#fff" style="fill: var(--color1, #fff)" d="M8.339 17.571c-0.659 0.033-1.161 0.483-1.121 1.006s0.607 0.919 1.266 0.887l7.465-0.373c0.659-0.033 1.161-0.483 1.121-1.006s-0.607-0.919-1.266-0.886l-7.465 0.373z"></path>
<path fill="#fff" style="fill: var(--color1, #fff)" d="M12.159 28.149l-3.771 0.223c-1.243 0.074-2.315-0.883-2.39-2.134l-1.186-19.951c-0.074-1.25 0.877-2.327 2.12-2.401l13.861-0.821c1.243-0.074 2.315 0.883 2.39 2.134l0.414 6.972c0.037 0.626 0.572 1.104 1.195 1.067s1.097-0.574 1.060-1.2l-0.414-6.972c-0.149-2.5-2.293-4.415-4.779-4.267l-13.861 0.821c-2.487 0.147-4.389 2.301-4.24 4.801l1.186 19.951c0.149 2.5 2.292 4.414 4.779 4.267l3.771-0.223c0.623-0.037 1.097-0.574 1.060-1.2s-0.572-1.104-1.195-1.067z"></path>
<path fill="#fff" style="fill: var(--color1, #fff)" d="M28.332 17.69c-1.418-1.231-3.595-1.103-4.852 0.284l-5.903 6.499c-0.125 0.138-0.214 0.304-0.258 0.484l-1.097 4.485c-0.097 0.398 0.034 0.816 0.344 1.091 0.232 0.206 0.535 0.307 0.839 0.29 0.102-0.006 0.204-0.025 0.303-0.059l4.54-1.522c0.187-0.063 0.354-0.171 0.485-0.316l5.891-6.487c1.257-1.388 1.127-3.518-0.292-4.748zM21.22 27.216l-2.284 0.766 0.545-2.229 3.983-4.385 1.715 1.488-3.96 4.361zM26.91 20.95l-0.208 0.229-1.715-1.488 0.208-0.229c0.419-0.463 1.145-0.505 1.618-0.095s0.516 1.12 0.098 1.582z"></path>
<path fill="#fff" style="fill: var(--color1, #fff)" d="M20.681 7.704l-12.349 0.561c-0.662 0.030-1.166 0.44-1.126 0.915s0.61 0.836 1.272 0.806l12.349-0.561c0.662-0.030 1.166-0.44 1.126-0.915s-0.61-0.836-1.272-0.806z"></path>
</symbol>
<symbol id="icon-stethoscope" viewBox="0 0 32 32">
<path fill="#fff" style="fill: var(--color1, #fff)" d="M25.333 20c2.209 0 4-1.791 4-4s-1.791-4-4-4c-2.209 0-4 1.791-4 4s1.791 4 4 4z"></path>
<path fill="#fff" style="fill: var(--color1, #fff)" d="M20 14.667c0.736 0 1.333-0.597 1.333-1.333s-0.597-1.333-1.333-1.333c-0.736 0-1.333 0.597-1.333 1.333s0.597 1.333 1.333 1.333z"></path>
<path fill="#fff" style="fill: var(--color1, #fff)" d="M22.667 12c0.736 0 1.333-0.597 1.333-1.333s-0.597-1.333-1.333-1.333c-0.736 0-1.333 0.597-1.333 1.333s0.597 1.333 1.333 1.333z"></path>
<path fill="#fff" style="fill: var(--color1, #fff)" d="M28 12c0.736 0 1.333-0.597 1.333-1.333s-0.597-1.333-1.333-1.333c-0.736 0-1.333 0.597-1.333 1.333s0.597 1.333 1.333 1.333z"></path>
<path fill="#fff" style="fill: var(--color1, #fff)" d="M30.667 14.667c0.736 0 1.333-0.597 1.333-1.333s-0.597-1.333-1.333-1.333-1.333 0.597-1.333 1.333c0 0.736 0.597 1.333 1.333 1.333z"></path>
<path fill="#fff" style="fill: var(--color1, #fff)" d="M16.666 29.333c-4.048-0.004-7.329-3.285-7.333-7.333v-4.667h-2.667v4.667c0 5.523 4.477 10 10 10s10-4.477 10-10h-2.667c-0.004 4.048-3.285 7.329-7.333 7.333z"></path>
<path fill="#fff" style="fill: var(--color1, #fff)" d="M16 8v-6.667c0-0.736-0.597-1.333-1.333-1.333h-4v2.667h2.667v5.333c0 2.946-2.388 5.333-5.333 5.333s-5.333-2.388-5.333-5.333v-5.333h2.667v-2.667h-4c-0.736 0-1.333 0.597-1.333 1.333v6.667c0 4.418 3.582 8 8 8s8-3.582 8-8z"></path>
</symbol>
<symbol id="icon-vkontakte" viewBox="0 0 32 32">
<path d="M30.509 23.468c-1.198-2.156-4.284-4.747-5.558-5.874-0.349-0.309-0.386-0.843-0.069-1.184 2.431-2.613 4.376-5.615 5.045-7.429 0.295-0.801-0.316-1.648-1.177-1.648h-2.502c-0.825 0-1.307 0.296-1.537 0.767-2.021 4.141-3.754 5.933-4.967 6.98-0.679 0.587-1.739 0.101-1.739-0.792 0-1.72 0-3.943 0-5.52 0-0.765-0.625-1.383-1.397-1.383l-4.571-0.052c-0.575 0-0.904 0.651-0.559 1.108l0.755 1.083c0.284 0.375 0.437 0.832 0.437 1.301l-0.004 4.879c0 0.849-1.029 1.263-1.639 0.669-2.066-2.012-3.859-6.121-4.504-8.085-0.187-0.569-0.719-0.953-1.323-0.954l-2.465-0.006c-0.925 0-1.601 0.877-1.349 1.759 2.252 7.905 6.873 15.425 15.107 16.24 0.811 0.080 1.511-0.573 1.511-1.382v-2.564c0-0.735 0.577-1.367 1.318-1.386 0.026-0.001 0.052-0.001 0.078-0.001 2.178 0 4.617 3.17 5.471 4.653 0.245 0.427 0.704 0.687 1.2 0.687h3.315c0.967 0 1.588-1.026 1.122-1.865z"></path>
</symbol>
</defs>
</svg>
