<svg aria-hidden="true" style="position:absolute;width:0;height:0;overflow:hidden" xmlns="http://www.w3.org/2000/svg">
<defs>
<symbol id="icon-adressmark" viewBox="0 0 32 32"><path  d="M15.82 1.382c-5.567.087-10.021 4.922-9.93 10.777.114 7.267 9.316 17.794 9.707 18.238a.88.88 0 0 0 1.353-.021c.378-.457 9.246-11.266 9.132-18.533C25.99 5.987 21.387 1.294 15.82 1.381zm.25 15.962c-2.801.044-5.117-2.317-5.163-5.264s2.195-5.378 4.996-5.422c2.801-.044 5.117 2.317 5.163 5.264s-2.195 5.378-4.996 5.422z"/></symbol>
<symbol id="icon-clock" viewBox="0 0 32 32"><path d="M15.777.301C7.412.432.716 7.498.851 16.053S7.902 31.461 16.267 31.33c8.365-.131 15.061-7.197 14.926-15.752S24.142.17 15.777.301zm.439 27.728c-6.585.103-12.03-5.292-12.136-12.027s5.165-12.297 11.75-12.4c6.585-.103 12.03 5.292 12.136 12.027s-5.165 12.297-11.75 12.4z"/><path d="m24.032 15.218-6.805.106-.132-8.397c-.011-.707-.578-1.271-1.267-1.26s-1.238.592-1.227 1.299l.152 9.676c.011.707.578 1.271 1.267 1.26l8.052-.126c.688-.011 1.238-.592 1.227-1.299s-.578-1.271-1.267-1.26z"/></symbol>
<symbol id="icon-coordinates" viewBox="0 0 32 32"><path d="M28.381 12.193c0 6.734-5.543 12.193-12.381 12.193S3.619 18.927 3.619 12.193 9.162 0 16 0s12.381 5.459 12.381 12.193zM17.714 30.202c0 .932-.767 1.688-1.714 1.688s-1.714-.756-1.714-1.688c0-.932.768-1.688 1.714-1.688s1.714.756 1.714 1.688z"/><path d="m16 27.388-1.81-.477-1.325-1.305-.485-1.782.485-1.782 1.325-1.305 1.81-.478 1.81.478 1.325 1.305.485 1.782-.485 1.782-1.325 1.305-1.81.477z"/><path d="M16.19 6.003c-2.235 0-4.571 1.794-4.571 4.749 0 2.797 4.063 7.071 4.216 7.229.102.106.203.158.356.158s.254-.053.356-.158c.152-.158 4.216-4.432 4.216-7.229 0-2.955-2.337-4.749-4.571-4.749zm0 6.332c-.864 0-1.524-.686-1.524-1.583s.66-1.583 1.524-1.583c.863 0 1.524.686 1.524 1.583s-.66 1.583-1.524 1.583z"/></symbol>
<symbol id="icon-facebook-f-33" viewBox="0 0 32 32"><path d="M20.48 7.04h3.2a.64.64 0 0 0 .64-.64V2.088a.639.639 0 0 0-.592-.638 74.58 74.58 0 0 0-4.438-.17c-3.93 0-6.49 2.355-6.49 6.636v4.244H8.32a.64.64 0 0 0-.64.64v4.48c0 .353.287.64.64.64h4.48v12.16c0 .353.287.64.64.64h4.48a.64.64 0 0 0 .64-.64V17.92h4.622a.64.64 0 0 0 .636-.57l.498-4.48a.64.64 0 0 0-.636-.71h-5.12v-3.2c0-1.06.86-1.92 1.92-1.92z"/></symbol>
<symbol id="icon-facebook-f-50" viewBox="0 0 32 32"><path d="M20.48 7.04h3.2a.64.64 0 0 0 .64-.64V2.088a.639.639 0 0 0-.592-.638 74.58 74.58 0 0 0-4.438-.17c-3.93 0-6.49 2.355-6.49 6.636v4.244H8.32a.64.64 0 0 0-.64.64v4.48c0 .353.287.64.64.64h4.48v12.16c0 .353.287.64.64.64h4.48a.64.64 0 0 0 .64-.64V17.92h4.622a.64.64 0 0 0 .636-.57l.498-4.48a.64.64 0 0 0-.636-.71h-5.12v-3.2c0-1.06.86-1.92 1.92-1.92z"/></symbol>
<symbol id="icon-home" viewBox="0 0 32 32"><path opacity=".64" d="M30.046 13.619 16.325 3.572a.753.753 0 0 0-.888 0L1.714 13.619a.754.754 0 0 0 .621 1.346.74.74 0 0 0 .267-.131l13.277-9.721 13.277 9.721a.749.749 0 0 0 1.036-.174.754.754 0 0 0-.148-1.04h.001z"/><path opacity=".64" d="M26.411 15.001a.753.753 0 0 0-.752.752v11.972h-6.017v-6.533a3.765 3.765 0 0 0-3.761-3.691 3.76 3.76 0 0 0-3.76 3.691v6.533H6.104V15.753a.753.753 0 1 0-1.504 0v12.724a.753.753 0 0 0 .752.752h7.521a.754.754 0 0 0 .749-.693.58.58 0 0 0 0-.059V21.19a2.257 2.257 0 1 1 4.514 0v7.287a.755.755 0 0 0 .75.752h7.521a.753.753 0 0 0 .752-.752V15.753a.75.75 0 0 0-.746-.752z"/></symbol>
<symbol id="icon-insta" viewBox="0 0 32 32"><path d="M16 .314c4.262 0 4.794.016 6.466.094 1.671.078 2.808.34 3.809.729a7.649 7.649 0 0 1 2.78 1.809 7.697 7.697 0 0 1 1.809 2.78c.387.999.651 2.138.729 3.809.074 1.672.094 2.204.094 6.466s-.016 4.794-.094 6.466c-.078 1.671-.342 2.808-.729 3.809a7.671 7.671 0 0 1-1.809 2.78 7.71 7.71 0 0 1-2.78 1.809c-.999.387-2.138.651-3.809.729-1.672.074-2.204.094-6.466.094s-4.794-.016-6.466-.094c-1.671-.078-2.808-.342-3.809-.729a7.671 7.671 0 0 1-2.78-1.809 7.697 7.697 0 0 1-1.809-2.78c-.389-.999-.651-2.138-.729-3.809-.074-1.672-.094-2.204-.094-6.466s.016-4.794.094-6.466c.078-1.672.34-2.808.729-3.809a7.663 7.663 0 0 1 1.809-2.78 7.689 7.689 0 0 1 2.78-1.809C6.726.748 7.861.486 9.534.408 11.206.334 11.738.314 16 .314zm0 7.843a7.843 7.843 0 1 0 0 15.686 7.843 7.843 0 0 0 0-15.686zm10.196-.392a1.961 1.961 0 1 0-3.922-.001 1.961 1.961 0 0 0 3.922.002zM16 11.294a4.704 4.704 0 0 1 3.328 8.034 4.704 4.704 0 0 1-6.656 0 4.704 4.704 0 0 1 0-6.656A4.704 4.704 0 0 1 16 11.294z"/></symbol>
<symbol id="icon-metro" viewBox="0 0 32 32"><path opacity=".6" d="M21.187 3.2 16 19.554 10.813 3.2C4.642 5.321 0 11.074 0 17.67c0 3.973 1.621 7.636 4.243 10.337h7.521l.788-3.419c-8.985-3.52-7.286-14.429-4.029-16.209.387.116 6.052 19.548 6.052 19.548h2.849S23.09 8.495 23.476 8.379c3.257 1.781 4.956 12.689-4.029 16.209l.789 3.419h7.521C30.379 25.307 32 21.643 32 17.67c0-6.596-4.642-12.349-10.813-14.47z"/></symbol>
<symbol id="icon-next" viewBox="0 0 32 32"><path d="m16.878 24.277 14.76-14.801a1.24 1.24 0 0 0-1.756-1.751L16 21.645 2.119 7.725A1.24 1.24 0 0 0 .362 9.477l14.76 14.801a1.241 1.241 0 0 0 1.756 0z"/></symbol>
<symbol id="icon-phone" viewBox="0 0 32 32"><path  d="m29.363 23.848-4.402-4.121c-.436-.392-1.002-.587-1.571-.542s-1.097.326-1.467.781l-1.95 2.319-.427-.217a20.915 20.915 0 0 1-5.243-3.529 22.106 22.106 0 0 1-3.953-5.082c-.086-.143-.168-.28-.25-.411l1.95-2.321c.384-.443.585-1.029.559-1.631s-.278-1.17-.699-1.581L7.508 3.392C7.072 3 6.507 2.805 5.938 2.85s-1.097.325-1.466.781L3.375 4.933l.034.032a7.24 7.24 0 0 0-.847 1.848 7.718 7.718 0 0 0-.316 1.838c-.255 4.808 2.08 9.05 8.055 14.64 8.261 7.731 14.479 6.752 14.746 6.699a6.683 6.683 0 0 0 1.696-.558 6.611 6.611 0 0 0 1.627-1.109l.027.023 1.106-1.288c.38-.444.579-1.029.553-1.63s-.275-1.167-.693-1.58z"/></symbol>
<symbol id="icon-prev" viewBox="0 0 32 32"><path d="m16.878 7.723 14.76 14.801a1.24 1.24 0 0 1-1.756 1.751L16 10.355 2.119 24.275a1.24 1.24 0 0 1-1.757-1.752l14.76-14.801a1.237 1.237 0 0 1 1.756 0z"/></symbol>
<symbol id="icon-sign-icon" viewBox="0 0 32 32"><path d="M21.961 13.251c-.04-.475-.61-.836-1.272-.806l-12.349.561c-.662.03-1.166.44-1.126.915s.61.836 1.272.806l12.349-.561c.662-.03 1.166-.44 1.126-.915zM8.339 17.571c-.659.033-1.161.483-1.121 1.006s.607.919 1.266.887l7.465-.373c.659-.033 1.161-.483 1.121-1.006s-.607-.919-1.266-.886l-7.465.373z"/><path d="m12.159 28.149-3.771.223a2.269 2.269 0 0 1-2.39-2.134L4.812 6.287a2.268 2.268 0 0 1 2.12-2.401l13.861-.821a2.269 2.269 0 0 1 2.39 2.134l.414 6.972c.037.626.572 1.104 1.195 1.067s1.097-.574 1.06-1.2l-.414-6.972c-.149-2.5-2.293-4.415-4.779-4.267L6.798 1.62c-2.487.147-4.389 2.301-4.24 4.801l1.186 19.951c.149 2.5 2.292 4.414 4.779 4.267l3.771-.223c.623-.037 1.097-.574 1.06-1.2s-.572-1.104-1.195-1.067zM28.332 17.69c-1.418-1.231-3.595-1.103-4.852.284l-5.903 6.499a1.116 1.116 0 0 0-.258.484l-1.097 4.485c-.097.398.034.816.344 1.091a1.165 1.165 0 0 0 1.142.231l4.54-1.522c.187-.063.354-.171.485-.316l5.891-6.487a3.316 3.316 0 0 0-.292-4.748zm-7.112 9.526-2.284.766.545-2.229 3.983-4.385 1.715 1.488-3.96 4.361zm5.69-6.266-.208.229-1.715-1.488.208-.229c.419-.463 1.145-.505 1.618-.095s.516 1.12.098 1.582z"/><path d="m20.681 7.704-12.349.561c-.662.03-1.166.44-1.126.915s.61.836 1.272.806l12.349-.561c.662-.03 1.166-.44 1.126-.915s-.61-.836-1.272-.806z"/></symbol>
<symbol id="icon-stethoscope" viewBox="0 0 32 32"><path d="M25.333 20a4 4 0 1 0 0-8 4 4 0 0 0 0 8z"/><path d="M20 14.667A1.333 1.333 0 1 0 20 12a1.333 1.333 0 0 0 0 2.667zM22.667 12a1.333 1.333 0 1 0 0-2.667 1.333 1.333 0 0 0 0 2.667zM28 12a1.333 1.333 0 1 0 0-2.667A1.333 1.333 0 0 0 28 12zM30.667 14.667a1.333 1.333 0 1 0 0-2.667 1.333 1.333 0 0 0 0 2.667zM16.666 29.333A7.34 7.34 0 0 1 9.333 22v-4.667H6.666V22c0 5.523 4.477 10 10 10s10-4.477 10-10h-2.667a7.34 7.34 0 0 1-7.333 7.333zM16 8V1.333C16 .597 15.403 0 14.667 0h-4v2.667h2.667V8A5.333 5.333 0 1 1 2.668 8V2.667h2.667V0h-4C.599 0 .002.597.002 1.333V8a8 8 0 0 0 16 0z"/></symbol><symbol id="icon-vkontakte" viewBox="0 0 32 32"><path d="M30.509 23.468c-1.198-2.156-4.284-4.747-5.558-5.874a.828.828 0 0 1-.069-1.184c2.431-2.613 4.376-5.615 5.045-7.429.295-.801-.316-1.648-1.177-1.648h-2.502c-.825 0-1.307.296-1.537.767-2.021 4.141-3.754 5.933-4.967 6.98-.679.587-1.739.101-1.739-.792v-5.52c0-.765-.625-1.383-1.397-1.383l-4.571-.052a.692.692 0 0 0-.559 1.108l.755 1.083c.284.375.437.832.437 1.301l-.004 4.879c0 .849-1.029 1.263-1.639.669-2.066-2.012-3.859-6.121-4.504-8.085A1.39 1.39 0 0 0 5.2 7.334l-2.465-.006c-.925 0-1.601.877-1.349 1.759 2.252 7.905 6.873 15.425 15.107 16.24a1.387 1.387 0 0 0 1.511-1.382v-2.564c0-.735.577-1.367 1.318-1.386l.078-.001c2.178 0 4.617 3.17 5.471 4.653a1.38 1.38 0 0 0 1.2.687h3.315c.967 0 1.588-1.026 1.122-1.865z"/></symbol>
<symbol id="icon-checked-checkbox" viewBox="0 0 39 32">
<path fill="#fff" style="fill: var(--color1, #fff)" d="M37.644 8.006c0.961-0.961 0.961-2.52 0-3.481l-2.785-2.785c-0.961-0.961-2.52-0.961-3.481 0l-16.161 16.162-7.21-7.21c-0.961-0.961-2.52-0.961-3.481 0l-2.785 2.785c-0.961 0.961-0.961 2.52 0 3.481l13.476 13.476 22.427-22.427z"></path>
</symbol>
</defs>
</svg>